%FSTAX23Y23*%
%MOMM*%
%SFA1B1*%

%IPPOS*%
%AMD16*
4,1,8,0.828040,0.342900,0.342900,0.828040,-0.342900,0.828040,-0.828040,0.342900,-0.828040,-0.342900,-0.342900,-0.828040,0.342900,-0.828040,0.828040,-0.342900,0.828040,0.342900,0.0*
%
%ADD10C,0.250000*%
%ADD11C,0.509999*%
%ADD12C,1.519997*%
%ADD13C,1.499997*%
%ADD14R,1.499997X1.499997*%
%ADD15R,1.649997X1.649997*%
G04~CAMADD=16~4~0.0~0.0~651.1~651.1~0.0~190.7~0~0.0~0.0~0.0~0.0~0~0.0~0.0~0.0~0.0~0~0.0~0.0~0.0~315.0~651.1~651.1*
%ADD16D16*%
%ADD17C,1.599997*%
%ADD18R,1.519997X1.519997*%
%ADD19R,1.199998X1.199998*%
%ADD20C,1.199998*%
G54D10*
X0Y0D02*
X98999D01*
X0D02*
Y66999D01*
X98999Y0D02*
Y66999D01*
X0D02*
X98999D01*
G54D11*
X60999Y00999D02*
X77999D01*
X46439Y15559D02*
X60999Y00999D01*
X07999Y15559D02*
X46439D01*
X60659Y03419D02*
Y06499D01*
Y03419D02*
X62079Y01999D01*
X76999*
X60659Y06499D02*
X61999Y07839D01*
X84059Y07059D02*
Y14369D01*
X77999Y00999D02*
X84059Y07059D01*
X76999Y01999D02*
X83089Y08089D01*
Y12909*
X94189Y53189D02*
X96479D01*
X92089Y51089D02*
X94189Y53189D01*
X92089Y49909D02*
Y51089D01*
X82669Y40489D02*
X92089Y49909D01*
X70299Y05999D02*
X70999Y05299D01*
X66999Y05999D02*
X70299D01*
X65159Y07839D02*
X66999Y05999D01*
X61999Y07839D02*
X65159D01*
X72049Y02999D02*
X77169Y08119D01*
X64299Y02999D02*
X72049D01*
X61999Y05299D02*
X64299Y02999D01*
X36019Y38899D02*
Y41529D01*
X33529Y44029D02*
X36019Y41529D01*
X33529Y44029D02*
X41419Y51919D01*
X36019Y38899D02*
X61999Y12919D01*
X07999Y19239D02*
X50839Y18999D01*
X02999Y19269D02*
X07999Y19239D01*
X88269Y09649D02*
Y14729D01*
X77169Y08119D02*
X78699Y09649D01*
X50839Y18999D02*
X61999Y07839D01*
X07999Y18999D02*
Y19239D01*
X70999Y17999D02*
X77169Y11829D01*
Y08119D02*
Y11829D01*
X79999Y13459D02*
X81259Y12199D01*
Y10179D02*
Y12199D01*
X80729Y09649D02*
X81259Y10179D01*
X78699Y09649D02*
X80729D01*
X04619Y44029D02*
X33529D01*
X41419Y51919D02*
X80239D01*
X32939Y62329D02*
X34269Y60999D01*
X30409Y62329D02*
X32939D01*
X28959Y60879D02*
X30409Y62329D01*
X24119Y60879D02*
X28959D01*
X22999Y61999D02*
X24119Y60879D01*
X04619Y49109D02*
X19839D01*
X31729Y60999*
X76359Y14559D02*
X79999Y10919D01*
X76359Y14559D02*
Y30549D01*
X78679Y32869*
X86589*
X95479Y41759*
X68129Y15789D02*
X70999Y12919D01*
X68129Y15789D02*
Y29669D01*
X78949Y40489*
X82669*
X96479Y53189D02*
X96759Y52909D01*
Y50659D02*
Y52909D01*
X95479Y49379D02*
X96759Y50659D01*
X95479Y44299D02*
X98279Y47109D01*
Y56979*
X96979Y58269D02*
X98279Y56979D01*
X93999Y58269D02*
X96979D01*
X81299Y45569D02*
X93999Y58269D01*
X75949Y45569D02*
X81299D01*
X66609Y36229D02*
X75949Y45569D01*
X66609Y12229D02*
Y36229D01*
Y12229D02*
X70999Y07839D01*
X95479Y46839D02*
X97519Y48889D01*
Y55199*
X96979Y55729D02*
X97519Y55199D01*
X93029Y55729D02*
X96979D01*
X85659Y48359D02*
X93029Y55729D01*
X85659Y46719D02*
Y48359D01*
X81969Y43029D02*
X85659Y46719D01*
X77459Y43029D02*
X81969D01*
X67369Y32939D02*
X77459Y43029D01*
X67369Y14009D02*
Y32939D01*
Y14009D02*
X70999Y10379D01*
X34269Y60999D02*
X39539Y55729D01*
X81739*
X81909Y55559*
Y48519D02*
Y55559D01*
X80239Y46839D02*
X81909Y48519D01*
X69649Y16809D02*
X70999Y15459D01*
X69649Y16809D02*
Y27159D01*
X77909Y35409*
X82209*
X94089Y47289*
Y50539*
X95479Y51919*
X02999Y19269D02*
Y41589D01*
X02589Y41999D02*
X02999Y41589D01*
X02589Y41999D02*
Y47079D01*
X04619Y49109*
X79999Y15999D02*
X83089Y12909D01*
X79999Y15999D02*
X86999D01*
X79999D02*
Y22399D01*
X80239Y22629*
Y29059*
X05609Y16459D02*
X07999D01*
X05339Y16729D02*
X05609Y16459D01*
X02999Y16729D02*
X05339D01*
X01729Y17999D02*
X02999Y16729D01*
X01729Y17999D02*
Y48759D01*
X04619Y51649*
X07999Y15559D02*
Y16459D01*
X84059Y14369D02*
X84409Y14729D01*
X88269*
Y23569*
X80239Y31599D02*
X88269Y23569D01*
X86999Y08379D02*
X88269Y09649D01*
X04619Y51649D02*
X10109D01*
X20459Y61999*
X80239Y31599D02*
X90399D01*
X95479Y36679*
X78569Y29939D02*
X80239Y31599D01*
X78569Y14889D02*
Y29939D01*
Y14889D02*
X79999Y13459D01*
X85729Y12189D02*
X86999Y13459D01*
X85729Y07819D02*
Y12189D01*
Y07819D02*
X87509Y06039D01*
X89539*
X96759Y13249*
Y37939*
X95479Y39219D02*
X96759Y37939D01*
X30219Y42159D02*
X61999Y10379D01*
X04069Y42159D02*
X30219D01*
X03349Y42879D02*
X04069Y42159D01*
X03349Y42879D02*
Y45299D01*
X04619Y46569*
X61999Y10379D02*
X63429Y11809D01*
Y45049*
X67759Y49379*
X80239*
G54D12*
X04619Y44029D03*
Y46569D03*
Y49109D03*
Y51649D03*
X95479Y59539D03*
Y56999D03*
Y54459D03*
Y51919D03*
Y49379D03*
Y46839D03*
Y44299D03*
Y41759D03*
Y39219D03*
Y36679D03*
Y34139D03*
Y31599D03*
X80239Y29059D03*
X95479Y62079D03*
Y64619D03*
X80239Y31599D03*
Y34139D03*
Y36679D03*
Y39219D03*
Y41759D03*
Y44299D03*
Y46839D03*
Y49379D03*
Y51919D03*
Y59539D03*
Y54459D03*
Y56999D03*
Y62079D03*
Y64619D03*
G54D13*
X79999Y08379D03*
Y10919D03*
Y13459D03*
X86999Y08379D03*
Y10919D03*
Y13459D03*
X02999Y16729D03*
G54D14*
X79999Y15999D03*
X86999D03*
X02999Y19269D03*
G54D15*
X70999Y17999D03*
X61999D03*
X07999Y18999D03*
G54D16*
X70999Y15459D03*
Y12919D03*
Y10379D03*
Y07839D03*
Y05299D03*
X61999D03*
Y07839D03*
Y10379D03*
Y12919D03*
Y15459D03*
X07999Y16459D03*
G54D17*
X34269Y60999D03*
X31729D03*
G54D18*
X95479Y29059D03*
G54D19*
X25539Y61999D03*
G54D20*
X22999Y61999D03*
X20459D03*
M02*